<svg width="1200" height="630" viewBox="0 0 1200 630" fill="none" xmlns="http://www.w3.org/2000/svg">
  <defs>
    <linearGradient id="bg-gradient" x1="0%" y1="0%" x2="100%" y2="100%">
      <stop offset="0%" stop-color="#050810"/>
      <stop offset="100%" stop-color="#0a0f1a"/>
    </linearGradient>
    <radialGradient id="glow1" cx="35%" cy="45%" r="40%">
      <stop offset="0%" stop-color="rgba(255, 255, 255, 0.06)"/>
      <stop offset="100%" stop-color="transparent"/>
    </radialGradient>
  </defs>

  <!-- Background -->
  <rect width="1200" height="630" fill="url(#bg-gradient)"/>
  <rect width="1200" height="630" fill="url(#glow1)"/>

  <!-- Subtle grid -->
  <pattern id="grid" width="64" height="64" patternUnits="userSpaceOnUse">
    <path d="M64 0H0V64" fill="none" stroke="rgba(255,255,255,0.03)" stroke-width="0.5"/>
  </pattern>
  <rect width="1200" height="630" fill="url(#grid)"/>

  <!-- Hanzo H Logo (large, centered-left) -->
  <g transform="translate(160, 185) scale(3.5)">
    <path d="M22.21 67V44.6369H0V67H22.21Z" fill="#ffffff"/>
    <path d="M66.7038 22.3184H22.2534L0.0878906 44.6367H44.4634L66.7038 22.3184Z" fill="#ffffff"/>
    <path d="M22.21 0H0V22.3184H22.21V0Z" fill="#ffffff"/>
    <path d="M66.7198 0H44.5098V22.3184H66.7198V0Z" fill="#ffffff"/>
    <path d="M66.7198 67V44.6369H44.5098V67H66.7198Z" fill="#ffffff"/>
  </g>

  <!-- Text -->
  <text x="480" y="270" font-family="Geist, system-ui, -apple-system, sans-serif" font-size="72" font-weight="700" fill="#f0f4ff">Hanzo Bot</text>

  <!-- Tagline -->
  <text x="480" y="330" font-family="Geist, system-ui, -apple-system, sans-serif" font-size="24" font-weight="500" fill="rgba(255,255,255,0.5)" letter-spacing="0.15em">YOUR AI TEAM IN A BOX</text>

  <!-- Description -->
  <text x="480" y="395" font-family="Geist, system-ui, -apple-system, sans-serif" font-size="26" fill="#8892b0">One bot. Every role. Every channel.</text>
  <text x="480" y="430" font-family="Geist, system-ui, -apple-system, sans-serif" font-size="26" fill="#8892b0">Every platform.</text>

  <!-- URL -->
  <text x="480" y="510" font-family="Geist, system-ui, -apple-system, sans-serif" font-size="20" fill="#5a6480">hanzo.bot</text>
</svg>
